<svg xmlns="http://www.w3.org/2000/svg" xmlns:xlink="http://www.w3.org/1999/xlink" width="1024" height="1024" viewBox="0 0 1024 1024" fill="none">
<rect x="0" y="0" width="0" height="0" fill="rgba(249, 249, 249, 1)" />
<path     fill="#FFFFFF"  d="M137 -1.08626e-13L887 -1.08626e-13C962.663 -1.08626e-13 1024 61.337 1024 137L1024 887C1024 962.663 962.663 1024 887 1024L137 1024C61.337 1024 -1.76838e-13 962.663 -1.62939e-13 887L5.43131e-14 137C5.89461e-14 61.337 61.337 -1.17892e-13 137 -1.08626e-13Z">
</path>
<path     fill="#E6D37E"  d="M513.61 618.55C632.623 512.393 805.873 549.807 818.93 552.82C819.435 552.936 819.864 553.252 820.14 553.69L957.06 770.8C958.066 772.395 956.366 774.391 954.56 773.85C917.192 762.66 696.77 705.026 512.43 840.02C511.722 840.539 510.908 839.79 510.2 839.27C330.488 707.279 96.0233 763.772 58.24 774.09C56.4431 774.581 54.935 772.558 55.94 770.99L195.17 553.72C195.461 553.266 195.961 552.943 196.49 552.84C211.316 549.955 413.463 512.914 510.61 618.82C511.359 619.637 512.783 619.288 513.61 618.55Z">
</path>
<path d="M306 758.017C376.181 773.107 411.65 773.107 510.506 841.01C564.108 801.777 593.559 792.723 611.628 785.178C544.465 644.845 655.471 648.618 676.526 546.009C676.526 455.471 448.626 432.837 448.626 391.34C448.626 367.197 486.358 352.107 486.358 352.107L486.358 334C486.358 334 376.816 333.246 388.255 404.167C399.695 475.087 536.164 478.86 536.164 517.338C536.164 555.817 367.24 570.152 306 758.017Z"   fill="#BA9F8F" >
</path>
<path d="M56.2967 811L8 874.376C8 874.376 7.99993 893.992 39.6947 893.992C317.401 830.616 409.466 893.992 466.819 915.872C504.55 938.507 541.528 931.716 563.412 915.872C702.265 842.688 899.98 874.376 984.499 893.238C1027.51 897.01 1015.44 874.376 1015.44 874.376L970.161 811C970.161 811 983.744 853.251 977.707 859.286C786.784 833.634 677.362 830.616 540.018 893.992C523.418 900.783 507.57 899.274 491.722 893.992C402.676 860.796 342.304 810.246 47.9957 859.286C44.2241 855.514 56.2967 811 56.2967 811Z"   fill="#825A4D" >
</path>
<path d="M57.3195 810.108C45.2453 839.533 46.5166 840.578 46 861.699C170.495 836.533 287.463 822.201 468.581 887.366C494.239 902.448 527.443 905.207 554.609 887.366C739.475 814.661 978.73 862.453 978.73 862.453C978.73 862.453 988.505 841.883 970.414 810.892C841.371 778.452 668.575 759.354 525.948 879.067C517.195 879.128 512.818 879.127 504.064 879.067C341.063 741.981 140.324 779.176 57.3195 810.108Z"   fill="#D6CA94" >
</path>
<path     fill="#AB5C52"  d="M536.4 95C537.505 95 538.4 95.8954 538.4 97L538.4 179.01C538.4 180.115 539.295 181.01 540.4 181.01L628.47 181.01C629.575 181.01 630.47 181.905 630.47 183.01L630.47 232.58C630.47 233.685 629.575 234.58 628.47 234.58L540.4 234.58C539.295 234.58 538.4 235.475 538.4 236.58L538.4 383.47C538.4 384.575 537.505 385.47 536.4 385.47L488.33 385.47C487.225 385.47 486.33 384.575 486.33 383.47L486.33 236.58C486.33 235.475 485.435 234.58 484.33 234.58L394 234.58C392.895 234.58 392 233.685 392 232.58L392 183.01C392 181.905 392.895 181.01 394 181.01L484.33 181.01C485.435 181.01 486.33 180.115 486.33 179.01L486.33 97C486.33 95.8954 487.225 95 488.33 95L536.4 95Z">
</path>
</svg>
